<?xml version="1.0" encoding="UTF-8"?>
<!DOCTYPE svg PUBLIC "-//W3C//DTD SVG 1.1//EN" "http://www.w3.org/Graphics/SVG/1.1/DTD/svg11.dtd">
<svg xmlns="http://www.w3.org/2000/svg" xmlns:xlink="http://www.w3.org/1999/xlink" xmlns:lucid="lucid" width="1800.73" height="1116.78"><g transform="translate(0 0)" lucid:page-tab-id="0_0"><path d="M0 0h1800.73v1116.78H0z" fill="#fff"/><path d="M611.76 88c0-4.42 3.58-8 8-8h520.78c4.42 0 8 3.58 8 8v26.15c0 4.4-3.58 8-8 8H619.76c-4.42 0-8-3.6-8-8z" stroke="#000" stroke-opacity="0" stroke-width="2" fill="#fff" fill-opacity="0"/><use xlink:href="#a" transform="matrix(1,0,0,1,615.7595767063941,84) translate(70.15999999999997 23.657777777777778)"/><use xlink:href="#b" transform="matrix(1,0,0,1,615.7595767063941,84) translate(200.97975308641975 23.657777777777778)"/><use xlink:href="#c" transform="matrix(1,0,0,1,615.7595767063941,84) translate(264.93283950617285 23.657777777777778)"/><use xlink:href="#d" transform="matrix(1,0,0,1,615.7595767063941,84) translate(315.84765432098766 23.657777777777778)"/><path d="M683.44 120.77h405.46M683.47 120.77h-1.03" stroke="#b2b2b2" stroke-width="2" fill="none"/><path d="M1089.9 121.07h-1.02v-1.3h1.02z" fill="#b2b2b2"/><path d="M611.3 129.07c0-4.4 3.6-8 8-8h521.4c4.4 0 8 3.6 8 8v4c0 4.42-3.6 8-8 8H619.3c-4.4 0-8-3.58-8-8z" stroke="#000" stroke-opacity="0" stroke-width="2" fill="#fff" fill-opacity="0"/><use xlink:href="#e" transform="matrix(1,0,0,1,615.3075907693174,125.07333333321691) translate(158.09168724279834 14.917037037037037)"/><use xlink:href="#f" transform="matrix(1,0,0,1,615.3075907693174,125.07333333321691) translate(211.62872427983538 14.917037037037037)"/><use xlink:href="#g" transform="matrix(1,0,0,1,615.3075907693174,125.07333333321691) translate(271.87913580246914 14.917037037037037)"/><use xlink:href="#h" transform="matrix(1,0,0,1,615.3075907693174,125.07333333321691) translate(284.32862139917694 14.917037037037037)"/><use xlink:href="#i" transform="matrix(1,0,0,1,615.3075907693174,125.07333333321691) translate(319.0427160493827 14.917037037037037)"/><use xlink:href="#j" transform="matrix(1,0,0,1,615.3075907693174,125.07333333321691) translate(344.5365432098765 14.917037037037037)"/><path d="M221.62 380h-43.24c-.98 0-1.73-.8-1.73-1.68v-76.64c0-.88.75-1.68 1.73-1.68h43.24c.98 0 1.73.8 1.73 1.68v76.64c0 .88-.75 1.68-1.73 1.68zm-41.56-3.44h39.88v-73.12h-39.88z" stroke="#fff" stroke-opacity="0" fill="#232f3e"/><path d="M184.77 307.98h30.44v3.4h-30.43V308zM184.77 315.97h30.44v3.4h-30.43v-3.4zM184.77 323.93h30.44v3.4h-30.43v-3.4zM184.77 331.9h30.44v3.42h-30.43v-3.4z" stroke="#fff" stroke-opacity="0" fill="#232f3e"/><use xlink:href="#k" transform="matrix(1,0,0,1,146.65000000002328,389) translate(27.5 14.4)"/><use xlink:href="#l" transform="matrix(1,0,0,1,146.65000000002328,389) translate(17.549999999999997 36)"/><path d="M221.62 540h-43.24c-.98 0-1.73-.8-1.73-1.68v-76.64c0-.88.75-1.68 1.73-1.68h43.24c.98 0 1.73.8 1.73 1.68v76.64c0 .88-.75 1.68-1.73 1.68zm-41.56-3.44h39.88v-73.12h-39.88z" stroke="#fff" stroke-opacity="0" fill="#232f3e"/><path d="M184.77 467.98h30.44v3.4h-30.43V468zM184.77 475.97h30.44v3.4h-30.43v-3.4zM184.77 483.93h30.44v3.4h-30.43v-3.4zM184.77 491.9h30.44v3.42h-30.43v-3.4z" stroke="#fff" stroke-opacity="0" fill="#232f3e"/><use xlink:href="#m" transform="matrix(1,0,0,1,146.65,549) translate(6.524999999999999 14.4)"/><use xlink:href="#n" transform="matrix(1,0,0,1,146.65,549) translate(69.475 14.4)"/><path d="M221.62 700h-43.24c-.98 0-1.73-.8-1.73-1.68v-76.64c0-.88.75-1.68 1.73-1.68h43.24c.98 0 1.73.8 1.73 1.68v76.64c0 .88-.75 1.68-1.73 1.68zm-41.56-3.44h39.88v-73.12h-39.88z" stroke="#fff" stroke-opacity="0" fill="#232f3e"/><path d="M184.77 627.98h30.44v3.4h-30.43V628zM184.77 635.97h30.44v3.4h-30.43v-3.4zM184.77 643.93h30.44v3.4h-30.43v-3.4zM184.77 651.9h30.44v3.42h-30.43v-3.4z" stroke="#fff" stroke-opacity="0" fill="#232f3e"/><use xlink:href="#o" transform="matrix(1,0,0,1,146.65000000002328,709) translate(21.049999999999997 14.4)"/><path d="M223.85 340h55.83c6.62 0 12 5.37 12 12v136c0 6.63 5.37 12 12 12h20.82" stroke="#333" fill="none"/><path d="M223.86 340.5h-.5v-1h.5zM325 500.5h-.5v-1h.5z" fill="#333"/><path d="M223.85 500H324.5" stroke="#333" fill="none"/><path d="M223.86 500.5h-.5v-1h.5zM325 500.5h-.5v-1h.5z" fill="#333"/><path d="M223.85 660h55.83c6.62 0 12-5.37 12-12V512c0-6.63 5.37-12 12-12h20.82" stroke="#333" fill="none"/><path d="M223.86 660.5h-.5v-1h.5zM325 500.5h-.5v-1h.5z" fill="#333"/><path d="M720 440h120v120H720V440z" stroke="#fff" stroke-opacity="0" stroke-width="2" fill="#d86613"/><path d="M816.8 540h-19.72c-.64 0-1.15-.32-1.4-.88l-27.92-58.32h-11.78c-.9 0-1.6-.72-1.6-1.6v-17.6c0-.88.7-1.6 1.6-1.6h24.65c.64 0 1.15.32 1.4.88l27.8 58.32h6.97c.9 0 1.6.72 1.6 1.6v17.6c0 .88-.7 1.6-1.6 1.6zm-18.7-3.2h17.1v-14.4h-6.4c-.64 0-1.15-.32-1.4-.88l-27.8-58.32H757.6v14.4h11.2c.65 0 1.16.32 1.48.88z" stroke="#fff" stroke-opacity="0" stroke-width="2" fill="#fff"/><path d="M763.96 540h-20.8c-.55 0-1.05-.3-1.37-.73-.33-.54-.33-1.12-.08-1.6l21.78-45.46c.24-.58.8-.92 1.4-.92.65 0 1.18.34 1.46.88l10.4 21.43c.26.43.26.92 0 1.4L765.42 539c-.2.63-.77 1.02-1.44 1.02zm-18.24-3.22h17.24l10.6-22.36-8.6-17.88z" stroke="#fff" stroke-opacity="0" stroke-width="2" fill="#fff"/><use xlink:href="#p" transform="matrix(1,0,0,1,690,569) translate(32.625 14.4)"/><use xlink:href="#q" transform="matrix(1,0,0,1,690,569) translate(78.525 14.4)"/><path d="M499.68 500.5h-89v-1h89zm203.94 0h-89v-1h89zM410.18 504.64L395.92 500l14.26-4.64z" fill="#333"/><path d="M410.68 505.32L394.3 500l16.38-5.32zM397.54 500l12.14 3.95v-7.9zM718.38 500l-14.26 4.64v-9.28z" fill="#333"/><path d="M720 500l-16.38 5.32v-10.64zm-15.38 3.95l12.14-3.95-12.14-3.95z" fill="#333"/><use xlink:href="#r" transform="matrix(1,0,0,1,499.67499999999995,489.2) translate(0.005000000000002558 14.4)"/><use xlink:href="#s" transform="matrix(1,0,0,1,499.67499999999995,489.2) translate(79.95500000000001 14.4)"/><path d="M777.7 780c-10.84 0-28.1-2.46-28.32-9.1l-7.73-57.2c-.14-.97.43-1.86 1.37-2.06.94-.14 1.88.47 2.1 1.43.8 3.28 13.65 7.86 32.64 7.86 19 0 31.86-4.58 32.65-7.86.23-.96 1.17-1.57 2.1-1.43.95.2 1.52 1.1 1.38 2.05L806 770.9c0 2.26-2.1 4.18-6 5.75-1.8.68-3.38 1.16-5.26 1.57-5.92 1.3-10.98 1.78-17.05 1.78zm-31.93-61.66l6.93 52.3v.2c0 2.05 9.75 5.8 24.92 5.8 5.78.08 10.62-.47 16.25-1.63 1.73-.4 3.18-.88 4.84-1.56 3.12-1.23 3.84-2.33 3.84-2.67v-.2l7-52.23c-6.57 3.9-19.8 6-31.92 6-12.13 0-25.28-2.1-31.85-6z" stroke="#fff" stroke-opacity="0" fill="#3f8624"/><path d="M777.7 724.32c-16.14 0-34.24-3.65-35.97-10.4V712.98v-.23c0-7.52 19.03-12.77 36.12-12.77 17.1 0 35.98 5.25 35.98 12.77v.22l-.07.7v.2c-1.88 6.77-19.98 10.42-36.05 10.42zm-32.66-11.2c1.1 3.3 13.85 7.8 32.67 7.8s31.6-4.5 32.67-7.8v-.45c-.22-3.3-13.63-9.26-32.66-9.26-19.03 0-32.5 5.96-32.73 9.27zM813.88 747.86c-8.07 0-25.83-8-36.92-13.46l1.5-3.06c15.3 7.53 33.35 14.5 36.45 13.18-.23-.48-1.4-2.02-6.82-4.97l-.24-.17 1.7-2.96.24.17c5.47 2.98 8.07 5.3 8.53 7.5.17.93-.07 1.83-.7 2.57-1.03.95-2.3 1.36-3.72 1.2z" stroke="#fff" stroke-opacity="0" fill="#3f8624"/><path d="M777.7 736.6c-2.03 0-3.7-1.66-3.7-3.7s1.67-3.7 3.7-3.7c2.04 0 3.7 1.66 3.7 3.7s-1.66 3.7-3.7 3.7zm0-4c-.17 0-.3.14-.3.3 0 .33.6.33.6 0v-.04c0-.16-.13-.28-.3-.28z" stroke="#fff" stroke-opacity="0" fill="#3f8624"/><use xlink:href="#t" transform="matrix(1,0,0,1,711.6500000000233,789) translate(18.049999999999997 14.4)"/><use xlink:href="#u" transform="matrix(1,0,0,1,711.6500000000233,789) translate(78.94999999999999 14.4)"/><path d="M780 576.38v123.27" stroke="#333" fill="none"/><path d="M780 561.62l4.64 14.26h-9.28z" stroke="#333" fill="#333"/><path d="M780.5 700.2l-1-.08v-.48h1z" fill="#333"/><path d="M40 228c0-4.42 3.58-8 8-8h304c4.42 0 8 3.58 8 8v544c0 4.42-3.58 8-8 8H48c-4.42 0-8-3.58-8-8z" stroke="#5a6c86" fill="#fff" fill-opacity="0"/><path d="M40 220h56v56H40v-56z" stroke="#fff" stroke-opacity="0" fill="#5a6c86"/><path d="M79.25 268h-22.5c-.44 0-.8-.36-.8-.8v-38.4c0-.44.36-.8.8-.8h22.5c.44 0 .8.36.8.8v38.4c0 .44-.36.8-.8.8zm-21.66-1.6h20.8v-36.8H57.6z" stroke="#fff" stroke-opacity="0" fill="#fff"/><path d="M60.08 233.76h15.84v1.6H60.08v-1.6zM60.08 240.78h15.84v1.6H60.08v-1.6zM60.08 247.8h15.84v1.6H60.08v-1.6z" stroke="#fff" stroke-opacity="0" fill="#fff"/><use xlink:href="#v" transform="matrix(1,0,0,1,111,240) translate(0 14.4)"/><use xlink:href="#w" transform="matrix(1,0,0,1,111,240) translate(89.80000000000001 14.4)"/><path d="M359.65 540L325 520v-40l34.65-20 34.65 20v40zm-31.05-22.08l31.05 17.92 31.05-17.92v-35.84l-31.05-17.92-31.05 17.92z" stroke="#fff" stroke-opacity="0" fill="#5a6c86"/><path d="M375.2 524.13l-22.68-22.68 7.68-7.68 22.67 22.68zm-17.58-22.68l17.57 17.58 2.5-2.58-17.53-17.58z" stroke="#fff" stroke-opacity="0" fill="#5a6c86"/><path d="M345.16 489.04l2.56-2.56 10.96 10.97-2.55 2.55-10.97-10.96z" stroke="#fff" stroke-opacity="0" stroke-width=".71" fill="#5a6c86"/><path d="M344.8 490.23h-.18c-1.2-.04-2.24-.54-3.02-1.47l-5.28-6.26 4.83-4.82 6.26 5.3c1.72 1.5 1.9 4.1.4 5.8-.8.92-1.83 1.4-3.04 1.4zm-3.6-7.52l3.12 3.74c.1.1.23.18.38.18.13 0 .26-.04.36-.14.1-.1.16-.24.16-.38 0-.16-.06-.3-.17-.4l-3.64-3.1zM346.08 524.16c-1.42 0-2.64-.26-3.92-.87l-2.37-1.13 4.5-4.5-.86-.88-4.5 4.5-.96-2.3c-2.2-4.45-.35-9.87 4.12-12.07 2-.98 4-1.2 6.17-.67l2.35-2.47 2.57 2.56-4.1 4.05-1.08-.4c-2.06-.8-4.27-.34-5.83 1.23-.94.93-1.44 2-1.58 3.32l2.86-2.87 5.98 5.98-2.86 2.88c1.32-.15 2.4-.66 3.3-1.57 1.58-1.57 2.05-3.77 1.25-5.83l-.4-1.1 4.36-4.36 2.56 2.55-2.76 2.77c.72 3.18-.16 6.2-2.47 8.5-1.75 1.77-3.88 2.64-6.35 2.66zM368.97 498.92l-2.54-2.52 4.05-4.02 1.08.42c2.06.82 4.26.35 5.8-1.24.95-.9 1.46-2 1.58-3.3l-2.85 2.86-5.98-5.97 2.85-2.87c-1.3.14-2.36.65-3.3 1.57-1.57 1.56-2.04 3.75-1.25 5.82l.43 1.1-4.16 4.17-2.58-2.56 2.6-2.58c-1.2-4.86 1.77-9.73 6.62-10.9 2.14-.54 4.12-.34 6.1.64l2.28 1.1-4.5 4.5.87.86 4.52-4.5 1.02 2.24c2.14 4.5.22 9.9-4.3 12.03-1.94.93-3.88 1.12-5.98.63z" stroke="#fff" stroke-opacity="0" fill="#5a6c86"/><use xlink:href="#x" transform="matrix(1,0,0,1,295,549) translate(45.025 14.4)"/><path d="M1160 440h120v120h-120V440z" stroke="#fff" stroke-opacity="0" fill="#693cc5"/><path d="M1237.6 538.42c-.35 0-.64-.15-.93-.3-.43-.3-.67-.78-.67-1.3v-73.63c0-.55.3-1.1.77-1.4.48-.3 1.08-.3 1.6-.07l20.8 10.22c.56.23.9.77.9 1.38v56.56c.02.76-.4 1.37-1.1 1.6l-20.8 6.92h-.56zm1.62-72.62v68.78l17.6-5.84v-54.4zM1202.4 538.42h-.52l-20.8-6.92c-.67-.23-1.1-.92-1.08-1.6v-56.57c0-.6.33-1.15.9-1.38l20.8-10.22c.52-.23 1.1-.23 1.6.08.48.3.75.85.75 1.4v73.6c0 .54-.24 1-.68 1.3-.28.24-.6.32-.98.32zm-19.2-9.6l17.6 5.83V465.8l-17.6 8.6z" stroke="#fff" stroke-opacity="0" fill="#fff"/><path d="M1236 484h-4.8v-3.2h4.8zm-9.6 0h-4.8v-3.2h4.8zm-9.6 0h-4.8v-3.2h4.8zm-9.6 0h-4.8v-3.2h4.8zM1236 519.2h-4.8V516h4.8zm-9.6 0h-4.8V516h4.8zm-9.6 0h-4.8V516h4.8zm-9.6 0h-4.8V516h4.8zM1212.98 505.5l-6.02-5.13c-.67-.57-.75-1.6-.18-2.26l.18-.17 6-5.13 2.08 2.43-4.58 3.97 4.58 3.92zM1227.04 505.5l-2.08-2.42 4.57-3.88-4.6-3.9 2.1-2.5 6 5.12c.68.57.76 1.6.2 2.26-.07.06-.12.12-.2.17z" stroke="#fff" stroke-opacity="0" fill="#fff"/><path d="M1215.3 508.87l6.35-18.8 3.04 1.03-6.37 18.8-3.04-1.03z" stroke="#fff" stroke-opacity="0" stroke-width=".32" fill="#fff"/><use xlink:href="#y" transform="matrix(1,0,0,1,1130,569) translate(37.599999999999994 14.4)"/><use xlink:href="#z" transform="matrix(1,0,0,1,1130,569) translate(112.45 14.4)"/><use xlink:href="#A" transform="matrix(1,0,0,1,1130,569) translate(53.025 36)"/><path d="M1160 220h120v120h-120V220z" stroke="#fff" stroke-opacity="0" fill="#cc2264"/><path d="M1210.38 296.8h-17.6c-1.84-.05-3.44-.53-5.04-1.48-5.04-3.12-7.84-8.3-7.76-14.27-.32-6.8 3.92-12.73 10.4-14.63v-1.27c.24-8.5 4.8-15.7 12.56-19.34 8.24-3.63 17.36-1.84 23.6 4.7 2.17 2.18 3.6 4.3 4.8 7.04 1.77-1.37 3.7-2.06 5.93-2.06 4.32 0 9.28 3.28 10.16 10.52 4.08 1 12.56 4.33 12.56 15.2.23 5.72-2.57 10.74-7.6 13.43l-1.6-2.8c4-2.16 6.15-6.13 5.9-10.62 0-9.4-7.75-11.72-11.2-12.3-.4-.1-.8-.32-1.03-.7-.24-.3-.32-.72-.24-1.15-.48-5.8-3.84-8.4-7.04-8.4-2.17.05-3.93 1-5.2 2.75-.33.47-.9.7-1.53.63-.56-.1-1.04-.47-1.28-1.05-1.05-3.23-2.65-5.76-4.97-8.2-5.37-5.5-13.05-7.02-20.1-3.96-6.4 3.12-10.3 9.14-10.55 16.28 0 .8.08 1.48.16 2.22.08.84-.48 1.63-1.28 1.8-5.68 1.16-9.6 6.18-9.28 11.93-.16 4.87 2.16 9.04 6.32 11.52 1.04.7 2.08 1 3.28 1h17.6z" stroke="#fff" stroke-opacity="0" fill="#fff"/><path d="M1258.23 306.4l-11.38-11.4c2.18-4.86 2.04-9.9-.37-14.64-4.28-8.35-14.53-11.68-22.86-7.37-8.33 4.26-11.66 14.5-7.38 22.8 4.28 8.35 14.48 11.67 22.86 7.4l11.2 11.18c1.1 1.13 2.42 1.62 3.97 1.62 1.55 0 2.9-.5 4-1.62h.05c2.14-2.24 2.14-5.8-.1-8zm-26.87-4.54c-7.6 0-13.75-6.15-13.75-13.74 0-7.58 6.16-13.74 13.76-13.74s13.76 6.16 13.76 13.74c0 7.6-6.15 13.74-13.76 13.74zM1256 312.1c-.96.9-2.5.9-3.46 0l-10.66-10.7c1.37-1.07 2.42-2.14 3.42-3.58l10.7 10.82c.96.94.96 2.47 0 3.45z" stroke="#fff" stroke-opacity="0" fill="#fff"/><path d="M1235.76 280.7l-1.9 2.56c-1.2-.88-2.53-1.2-4-1-2.94.43-4.98 3.18-4.55 6.12.2 1.5.9 2.73 2.15 3.62l-1.85 2.5c-3.76-2.9-4.47-8.3-1.58-12.05 2.83-3.67 8.03-4.46 11.8-1.76z" stroke="#fff" stroke-opacity="0" fill="#fff"/><use xlink:href="#y" transform="matrix(1,0,0,1,1130,349) translate(0.5749999999999886 14.4)"/><use xlink:href="#B" transform="matrix(1,0,0,1,1130,349) translate(75.425 14.4)"/><path d="M922.36 280.5H792.03l-3 .4-2.77 1.14-2.4 1.83-1.82 2.4-1.14 2.75-.4 3v131.6h-1V291.97l.42-3.2 1.24-3 2-2.6 2.6-2 3-1.25 3.2-.42h130.4zm237.14 0h-115.24v-1h115.24zM780 438.38l-4.64-14.26h9.28z" fill="#333"/><path d="M780 440l-5.32-16.38h10.64zm-3.95-15.38l3.95 12.14 3.95-12.14zM1160 280.5h-.5v-1h.5z" fill="#333"/><use xlink:href="#C" transform="matrix(1,0,0,1,922.3630101685651,269.2) translate(0.005000000000002558 14.4)"/><use xlink:href="#D" transform="matrix(1,0,0,1,922.3630101685651,269.2) translate(45.005 14.4)"/><use xlink:href="#E" transform="matrix(1,0,0,1,922.3630101685651,269.2) translate(85.005 14.4)"/><path d="M895.67 500.5h-39.3v-1h39.3zm247.95 0h-39.3v-1h39.3zM855.88 504.64L841.62 500l14.26-4.64z" fill="#333"/><path d="M856.38 505.32L840 500l16.38-5.32zM843.24 500l12.14 3.95v-7.9zM1158.38 500l-14.26 4.64v-9.28z" fill="#333"/><path d="M1160 500l-16.38 5.32v-10.64zm-15.38 3.95l12.14-3.95-12.14-3.95z" fill="#333"/><use xlink:href="#F" transform="matrix(1,0,0,1,895.675,489.2) translate(0.0049999999999954525 14.4)"/><use xlink:href="#G" transform="matrix(1,0,0,1,895.675,489.2) translate(99.805 14.4)"/><use xlink:href="#H" transform="matrix(1,0,0,1,895.675,489.2) translate(177.755 14.4)"/><path d="M1714.82 516.8h-69.7c-2.8 0-5.12-2.28-5.12-5.07v-45.65c0-2.8 2.32-5.08 5.12-5.08h69.7c2.8 0 5.1 2.3 5.1 5.08v45.6c0 2.84-2.23 5.12-5.02 5.12h-.08zm-69.62-52.4c-.96 0-1.76.73-1.76 1.68v45.6c0 .94.8 1.72 1.76 1.72h69.7c.96 0 1.67-.78 1.67-1.73v-45.6c0-.94-.7-1.67-1.67-1.67zM1714 539h-68.05c-3.28-.02-5.92-2.65-5.92-5.92v-7.35c0-3.27 2.64-5.94 5.92-5.96H1714c3.28 0 6 2.67 6 5.96v7.35c0 3.3-2.72 5.92-6 5.92zm-68.05-15.84c-1.36 0-2.48 1.17-2.48 2.57v7.35c0 1.4 1.12 2.52 2.48 2.54H1714c1.44 0 2.56-1.16 2.56-2.58v-7.3c0-1.43-1.12-2.58-2.56-2.58z" stroke="#fff" stroke-opacity="0" fill="#232f3e"/><path d="M1711.9 510.45h-63.8c-.95 0-1.7-.78-1.7-1.7V469c0-.92.75-1.7 1.7-1.7h63.8c.95 0 1.7.78 1.7 1.7v39.76c0 .9-.75 1.7-1.7 1.7zm-62.06-3.4h60.32V470.7h-60.32zM1692.74 526.13h19.16c1.13 0 1.7.57 1.7 1.7V531c0 1.14-.57 1.7-1.7 1.7h-19.16c-1.12 0-1.7-.56-1.7-1.7v-3.17c0-1.13.58-1.7 1.7-1.7z" stroke="#fff" stroke-opacity="0" fill="#232f3e"/><use xlink:href="#I" transform="matrix(1,0,0,1,1610,548) translate(45.074999999999996 14.4)"/><path d="M1639.5 500h-343.12" stroke="#333" fill="none"/><path d="M1640 500.5h-.5v-1h.5z" fill="#333"/><path d="M1281.62 500l14.26-4.64v9.28z" stroke="#333" fill="#333"/><path d="M1160 700h120v120h-120V700z" stroke="#fff" stroke-opacity="0" fill="#d6242d"/><path d="M1248 724h-61.64c-3.46.16-6.1 3.12-5.97 6.55v39.7c-.15 3.43 2.5 6.4 5.96 6.55h34.03v-3.22h-34.04c-1.7-.2-2.87-1.7-2.73-3.33v-27.03h28.8v23.97c0 .9.67 1.57 1.55 1.57h12.82v-3.16h-10.46v-.47c0-5.6 3.46-10.3 8.84-11.88 2.58 1.16 5.23 1.16 7.88 0 3.02.9 5.38 2.7 7.07 5.44l2.73-1.6c-1.77-2.8-3.98-4.75-7-6.12 1.4-1.64 2.06-3.43 2.06-5.54 0-4.86-3.97-8.82-8.84-8.82-4.78 0-8.76 3.96-8.76 8.82.07 2.06.73 3.85 2.06 5.44-2.87 1.26-5 3.1-6.7 5.8v-21.5h27.18v22.41h3.17v-14.36h4.78v16h3.25v-28.67-.06c.15-3.5-2.57-6.4-6.04-6.5zm-18.92 15.8c3.1 0 5.6 2.47 5.68 5.53-.08 2.06-1.1 3.8-2.95 4.8-1.76.96-3.67.96-5.37 0-1.84-1-2.87-2.74-2.94-4.8.06-3.06 2.56-5.54 5.58-5.54zm16.95.2v-6.4c0-.9-.74-1.57-1.62-1.57H1214c-.88 0-1.54.68-1.54 1.58v6.4h-28.8v-9.45c-.15-1.64 1.03-3.12 2.72-3.33H1248c1.64.2 2.9 1.64 2.74 3.33V740z" stroke="#fff" stroke-opacity="0" fill="#fff"/><path d="M1186.83 751.12h17.57v3.2h-17.57v-3.2zM1186.83 759.12H1198v3.2h-11.17v-3.2zM1201.23 759.12h4.77v3.2h-4.77v-3.2zM1243.4 796.08c-8.9.03-16.2-7.15-16.23-16.1-.03-8.94 7.16-16.22 16.1-16.25.76 0 1.37.03 2.12.13 8.84 1.1 15.16 9.2 14.06 18.05-.4 3.3-1.6 6-3.73 8.52-1.6 1.8-3.24 3.07-5.42 4.14-2.25 1.03-4.36 1.52-6.9 1.52zm0-29.15c-2.13 0-3.98.45-5.9 1.42-6.18 3.24-8.7 10.68-5.76 17.02 3.02 6.5 10.73 9.32 17.25 6.28 1.74-.84 3.06-1.85 4.3-3.3 1.75-2.04 2.72-4.24 3.04-6.9.85-7.1-4.2-13.55-11.34-14.42-.55-.07-1.04-.1-1.62-.1z" stroke="#fff" stroke-opacity="0" fill="#fff"/><path d="M1240.88 786.72c-.44 0-.82-.16-1.13-.47l-5.17-5.16 2.22-2.27 4.02 4.03 9.13-9.13 2.27 2.27-10.27 10.25c-.3.3-.65.46-1.07.47z" stroke="#fff" stroke-opacity="0" fill="#fff"/><g><use xlink:href="#y" transform="matrix(1,0,0,1,1130,829) translate(18.724999999999994 14.4)"/><use xlink:href="#J" transform="matrix(1,0,0,1,1130,829) translate(93.575 14.4)"/></g><path d="M1217.7 1040c-10.84 0-28.1-2.46-28.32-9.1l-7.73-57.2c-.14-.97.43-1.86 1.37-2.06.94-.14 1.88.47 2.1 1.43.8 3.28 13.65 7.86 32.64 7.86 19 0 31.86-4.58 32.65-7.86.23-.96 1.17-1.57 2.1-1.43.95.2 1.52 1.1 1.38 2.05l-7.87 57.2c0 2.26-2.1 4.18-6 5.75-1.8.68-3.38 1.16-5.26 1.57-5.92 1.3-10.98 1.78-17.05 1.78zm-31.93-61.66l6.93 52.3v.2c0 2.05 9.75 5.8 24.92 5.8 5.78.08 10.62-.47 16.25-1.63 1.73-.4 3.18-.88 4.84-1.56 3.12-1.23 3.84-2.33 3.84-2.67v-.2l7-52.23c-6.57 3.9-19.8 6-31.92 6-12.13 0-25.28-2.1-31.85-6z" stroke="#fff" stroke-opacity="0" fill="#3f8624"/><path d="M1217.7 984.32c-16.14 0-34.24-3.65-35.97-10.4V972.98v-.23c0-7.52 19.03-12.77 36.12-12.77 17.1 0 35.98 5.25 35.98 12.77v.22l-.07.7v.2c-1.88 6.77-19.98 10.42-36.05 10.42zm-32.66-11.2c1.1 3.3 13.85 7.8 32.67 7.8s31.6-4.5 32.67-7.8v-.45c-.22-3.3-13.63-9.26-32.66-9.26-19.03 0-32.5 5.96-32.73 9.27zM1253.88 1007.86c-8.07 0-25.83-8-36.92-13.46l1.5-3.06c15.3 7.53 33.35 14.5 36.45 13.18-.23-.48-1.4-2.02-6.82-4.97l-.24-.17 1.7-2.96.24.17c5.47 2.98 8.07 5.3 8.53 7.5.17.93-.07 1.83-.7 2.57-1.03.95-2.3 1.36-3.72 1.2z" stroke="#fff" stroke-opacity="0" fill="#3f8624"/><path d="M1217.7 996.6c-2.03 0-3.7-1.66-3.7-3.7s1.67-3.7 3.7-3.7c2.04 0 3.7 1.66 3.7 3.7s-1.66 3.7-3.7 3.7zm0-4c-.17 0-.3.14-.3.3 0 .33.6.33.6 0v-.04c0-.16-.13-.28-.3-.28z" stroke="#fff" stroke-opacity="0" fill="#3f8624"/><g><use xlink:href="#K" transform="matrix(1,0,0,1,1151.6500000000233,1049) translate(12.049999999999997 14.4)"/><use xlink:href="#L" transform="matrix(1,0,0,1,1151.6500000000233,1049) translate(62 14.4)"/></g><path d="M1220.5 683.62h-1v-28.28h1zm0-49.88h-1V560.5h1zM1220.5 560.5h-1v-.5h1zM1220 698.38l-4.64-14.26h9.28z" fill="#333"/><path d="M1220 700l-5.32-16.38h10.64zm-3.95-15.38l3.95 12.14 3.95-12.14z" fill="#333"/><g><use xlink:href="#M" transform="matrix(1,0,0,1,1182.05,633.7399659615477) translate(0.005000000000002558 14.4)"/></g><path d="M1220.5 943.77h-1v-42.9h1zm0-64.5h-1v-42.9h1zM1224.64 835.88h-9.28l4.64-14.26z" fill="#333"/><path d="M1225.32 836.38h-10.64L1220 820zm-9.27-1h7.9l-3.95-12.14zM1220 958.53l-4.64-14.26h9.28z" fill="#333"/><path d="M1220 960.15l-5.32-16.38h10.64zm-3.95-15.38l3.95 12.14 3.95-12.13z" fill="#333"/><g><use xlink:href="#N" transform="matrix(1,0,0,1,1170.025,879.2753865875721) translate(0.005000000000002558 14.4)"/></g><defs><path fill="#b2b2b2" d="M230 0l2-204L168 0h-37L68-204 70 0H24v-248h70l56 185 57-185h69V0h-46" id="O"/><path fill="#b2b2b2" d="M133-34C117-15 103 5 69 4 32 3 11-16 11-54c-1-60 55-63 116-61 1-26-3-47-28-47-18 1-26 9-28 27l-52-2c7-38 36-58 82-57s74 22 75 68l1 82c-1 14 12 18 25 15v27c-30 8-71 5-69-32zm-48 3c29 0 43-24 42-57-32 0-66-3-65 30 0 17 8 27 23 27" id="P"/><path fill="#b2b2b2" d="M135-150c-39-12-60 13-60 57V0H25l-1-190h47c2 13-1 29 3 40 6-28 27-53 61-41v41" id="Q"/><path fill="#b2b2b2" d="M147 0L96-86 75-71V0H25v-261h50v150l67-79h53l-66 74L201 0h-54" id="R"/><path fill="#b2b2b2" d="M185-48c-13 30-37 53-82 52C43 2 14-33 14-96s30-98 90-98c62 0 83 45 84 108H66c0 31 8 55 39 56 18 0 30-7 34-22zm-45-69c5-46-57-63-70-21-2 6-4 13-4 21h74" id="S"/><path fill="#b2b2b2" d="M115-3C79 11 28 4 28-45v-112H4v-33h27l15-45h31v45h36v33H77v99c-1 23 16 31 38 25v30" id="T"/><path fill="#b2b2b2" d="M25-224v-37h50v37H25zM25 0v-190h50V0H25" id="U"/><path fill="#b2b2b2" d="M135-194c87-1 58 113 63 194h-50c-7-57 23-157-34-157-59 0-34 97-39 157H25l-1-190h47c2 12-1 28 3 38 12-26 28-41 61-42" id="V"/><path fill="#b2b2b2" d="M195-6C206 82 75 100 31 46c-4-6-6-13-8-21l49-6c3 16 16 24 34 25 40 0 42-37 40-79-11 22-30 35-61 35-53 0-70-43-70-97 0-56 18-96 73-97 30 0 46 14 59 34l2-30h47zm-90-29c32 0 41-27 41-63 0-35-9-62-40-62-32 0-39 29-40 63 0 36 9 62 39 62" id="W"/><g id="a"><use transform="matrix(0.0728395061728395,0,0,0.0728395061728395,0,0)" xlink:href="#O"/><use transform="matrix(0.0728395061728395,0,0,0.0728395061728395,21.77901234567901,0)" xlink:href="#P"/><use transform="matrix(0.0728395061728395,0,0,0.0728395061728395,36.34691358024691,0)" xlink:href="#Q"/><use transform="matrix(0.0728395061728395,0,0,0.0728395061728395,46.544444444444444,0)" xlink:href="#R"/><use transform="matrix(0.0728395061728395,0,0,0.0728395061728395,61.11234567901234,0)" xlink:href="#S"/><use transform="matrix(0.0728395061728395,0,0,0.0728395061728395,75.68024691358025,0)" xlink:href="#T"/><use transform="matrix(0.0728395061728395,0,0,0.0728395061728395,84.34814814814817,0)" xlink:href="#U"/><use transform="matrix(0.0728395061728395,0,0,0.0728395061728395,91.63209876543209,0)" xlink:href="#V"/><use transform="matrix(0.0728395061728395,0,0,0.0728395061728395,107.58395061728396,0)" xlink:href="#W"/></g><path fill="#b2b2b2" d="M24-248c120-7 223 5 221 122C244-46 201 0 124 0H24v-248zM76-40c74 7 117-18 117-86 0-67-45-88-117-82v168" id="X"/><g id="b"><use transform="matrix(0.0728395061728395,0,0,0.0728395061728395,0,0)" xlink:href="#X"/><use transform="matrix(0.0728395061728395,0,0,0.0728395061728395,18.86543209876543,0)" xlink:href="#P"/><use transform="matrix(0.0728395061728395,0,0,0.0728395061728395,33.43333333333333,0)" xlink:href="#T"/><use transform="matrix(0.0728395061728395,0,0,0.0728395061728395,42.10123456790124,0)" xlink:href="#P"/></g><path fill="#b2b2b2" d="M199 0l-22-63H83L61 0H9l90-248h61L250 0h-51zm-33-102l-36-108c-10 38-24 72-36 108h72" id="Y"/><path fill="#b2b2b2" d="M24-248c93 1 206-16 204 79-1 75-69 88-152 82V0H24v-248zm52 121c47 0 100 7 100-41 0-47-54-39-100-39v80" id="Z"/><path fill="#b2b2b2" d="M24 0v-248h52V0H24" id="aa"/><g id="c"><use transform="matrix(0.0728395061728395,0,0,0.0728395061728395,0,0)" xlink:href="#Y"/><use transform="matrix(0.0728395061728395,0,0,0.0728395061728395,18.86543209876543,0)" xlink:href="#Z"/><use transform="matrix(0.0728395061728395,0,0,0.0728395061728395,36.34691358024691,0)" xlink:href="#aa"/></g><path fill="#b2b2b2" d="M110-194c64 0 96 36 96 99 0 64-35 99-97 99-61 0-95-36-95-99 0-62 34-99 96-99zm-1 164c35 0 45-28 45-65 0-40-10-65-43-65-34 0-45 26-45 65 0 36 10 65 43 65" id="ab"/><path fill="#b2b2b2" d="M137-138c1-29-70-34-71-4 15 46 118 7 119 86 1 83-164 76-172 9l43-7c4 19 20 25 44 25 33 8 57-30 24-41C81-84 22-81 20-136c-2-80 154-74 161-7" id="ac"/><g id="d"><use transform="matrix(0.0728395061728395,0,0,0.0728395061728395,0,0)" xlink:href="#aa"/><use transform="matrix(0.0728395061728395,0,0,0.0728395061728395,7.28395061728395,0)" xlink:href="#V"/><use transform="matrix(0.0728395061728395,0,0,0.0728395061728395,23.235802469135802,0)" xlink:href="#T"/><use transform="matrix(0.0728395061728395,0,0,0.0728395061728395,31.90370370370371,0)" xlink:href="#S"/><use transform="matrix(0.0728395061728395,0,0,0.0728395061728395,46.471604938271604,0)" xlink:href="#W"/><use transform="matrix(0.0728395061728395,0,0,0.0728395061728395,62.42345679012345,0)" xlink:href="#Q"/><use transform="matrix(0.0728395061728395,0,0,0.0728395061728395,72.62098765432098,0)" xlink:href="#P"/><use transform="matrix(0.0728395061728395,0,0,0.0728395061728395,87.18888888888888,0)" xlink:href="#T"/><use transform="matrix(0.0728395061728395,0,0,0.0728395061728395,95.85679012345679,0)" xlink:href="#U"/><use transform="matrix(0.0728395061728395,0,0,0.0728395061728395,103.14074074074074,0)" xlink:href="#ab"/><use transform="matrix(0.0728395061728395,0,0,0.0728395061728395,119.0925925925926,0)" xlink:href="#V"/><use transform="matrix(0.0728395061728395,0,0,0.0728395061728395,135.04444444444445,0)" xlink:href="#ac"/></g><path fill="#b2b2b2" d="M153-248C145-148 188 4 80 4 36 3 13-21 6-62l32-5c4 25 16 42 43 43 27 0 39-20 39-49v-147H72v-28h81" id="ad"/><path fill="#b2b2b2" d="M100-194c62-1 85 37 85 99 1 63-27 99-86 99S16-35 15-95c0-66 28-99 85-99zM99-20c44 1 53-31 53-75 0-43-8-75-51-75s-53 32-53 75 10 74 51 75" id="ae"/><path fill="#b2b2b2" d="M135-143c-3-34-86-38-87 0 15 53 115 12 119 90S17 21 10-45l28-5c4 36 97 45 98 0-10-56-113-15-118-90-4-57 82-63 122-42 12 7 21 19 24 35" id="af"/><path fill="#b2b2b2" d="M106-169C34-169 62-67 57 0H25v-261h32l-1 103c12-21 28-36 61-36 89 0 53 116 60 194h-32v-121c2-32-8-49-39-48" id="ag"/><path fill="#b2b2b2" d="M84 4C-5 8 30-112 23-190h32v120c0 31 7 50 39 49 72-2 45-101 50-169h31l1 190h-30c-1-10 1-25-2-33-11 22-28 36-60 37" id="ah"/><path fill="#b2b2b2" d="M141-36C126-15 110 5 73 4 37 3 15-17 15-53c-1-64 63-63 125-63 3-35-9-54-41-54-24 1-41 7-42 31l-33-3c5-37 33-52 76-52 45 0 72 20 72 64v82c-1 20 7 32 28 27v20c-31 9-61-2-59-35zM48-53c0 20 12 33 32 33 41-3 63-29 60-74-43 2-92-5-92 41" id="ai"/><g id="e"><use transform="matrix(0.04248971193415638,0,0,0.04248971193415638,0,0)" xlink:href="#ad"/><use transform="matrix(0.04248971193415638,0,0,0.04248971193415638,7.648148148148148,0)" xlink:href="#ae"/><use transform="matrix(0.04248971193415638,0,0,0.04248971193415638,16.14609053497942,0)" xlink:href="#af"/><use transform="matrix(0.04248971193415638,0,0,0.04248971193415638,23.79423868312757,0)" xlink:href="#ag"/><use transform="matrix(0.04248971193415638,0,0,0.04248971193415638,32.29218106995884,0)" xlink:href="#ah"/><use transform="matrix(0.04248971193415638,0,0,0.04248971193415638,40.79012345679012,0)" xlink:href="#ai"/></g><path fill="#b2b2b2" d="M160-131c35 5 61 23 61 61C221 17 115-2 30 0v-248c76 3 177-17 177 60 0 33-19 50-47 57zm-97-11c50-1 110 9 110-42 0-47-63-36-110-37v79zm0 115c55-2 124 14 124-45 0-56-70-42-124-44v89" id="aj"/><path fill="#b2b2b2" d="M114-163C36-179 61-72 57 0H25l-1-190h30c1 12-1 29 2 39 6-27 23-49 58-41v29" id="ak"/><path fill="#b2b2b2" d="M85-194c31 0 48 13 60 33l-1-100h32l1 261h-30c-2-10 0-23-3-31C134-8 116 4 85 4 32 4 16-35 15-94c0-66 23-100 70-100zm9 24c-40 0-46 34-46 75 0 40 6 74 45 74 42 0 51-32 51-76 0-42-9-74-50-73" id="al"/><path fill="#b2b2b2" d="M24 0v-261h32V0H24" id="am"/><path fill="#b2b2b2" d="M100-194c63 0 86 42 84 106H49c0 40 14 67 53 68 26 1 43-12 49-29l28 8c-11 28-37 45-77 45C44 4 14-33 15-96c1-61 26-98 85-98zm52 81c6-60-76-77-97-28-3 7-6 17-6 28h103" id="an"/><path fill="#b2b2b2" d="M179-190L93 31C79 59 56 82 12 73V49c39 6 53-20 64-50L1-190h34L92-34l54-156h33" id="ao"/><g id="f"><use transform="matrix(0.04248971193415638,0,0,0.04248971193415638,0,0)" xlink:href="#aj"/><use transform="matrix(0.04248971193415638,0,0,0.04248971193415638,10.19753086419753,0)" xlink:href="#ak"/><use transform="matrix(0.04248971193415638,0,0,0.04248971193415638,15.25380658436214,0)" xlink:href="#ai"/><use transform="matrix(0.04248971193415638,0,0,0.04248971193415638,23.751748971193415,0)" xlink:href="#al"/><use transform="matrix(0.04248971193415638,0,0,0.04248971193415638,32.24969135802469,0)" xlink:href="#am"/><use transform="matrix(0.04248971193415638,0,0,0.04248971193415638,35.60637860082304,0)" xlink:href="#an"/><use transform="matrix(0.04248971193415638,0,0,0.04248971193415638,44.10432098765432,0)" xlink:href="#ao"/></g><path fill="#b2b2b2" d="M32 76v-337h29V76H32" id="ap"/><use transform="matrix(0.04248971193415638,0,0,0.04248971193415638,0,0)" xlink:href="#ap" id="g"/><path fill="#b2b2b2" d="M205 0l-28-72H64L36 0H1l101-248h38L239 0h-34zm-38-99l-47-123c-12 45-31 82-46 123h93" id="aq"/><path fill="#b2b2b2" d="M115-194c55 1 70 41 70 98S169 2 115 4C84 4 66-9 55-30l1 105H24l-1-265h31l2 30c10-21 28-34 59-34zm-8 174c40 0 45-34 45-75s-6-73-45-74c-42 0-51 32-51 76 0 43 10 73 51 73" id="ar"/><path fill="#b2b2b2" d="M24-231v-30h32v30H24zM24 0v-190h32V0H24" id="as"/><g id="h"><use transform="matrix(0.04248971193415638,0,0,0.04248971193415638,0,0)" xlink:href="#aq"/><use transform="matrix(0.04248971193415638,0,0,0.04248971193415638,10.19753086419753,0)" xlink:href="#ar"/><use transform="matrix(0.04248971193415638,0,0,0.04248971193415638,18.695473251028805,0)" xlink:href="#ak"/><use transform="matrix(0.04248971193415638,0,0,0.04248971193415638,23.751748971193415,0)" xlink:href="#as"/><use transform="matrix(0.04248971193415638,0,0,0.04248971193415638,27.10843621399177,0)" xlink:href="#am"/></g><path fill="#b2b2b2" d="M27 0v-27h64v-190l-56 39v-29l58-41h29v221h61V0H27" id="at"/><path fill="#b2b2b2" d="M54-142c48-35 137-8 131 61C196 18 31 33 14-55l32-4c7 23 22 37 52 37 35-1 51-22 54-58 4-55-73-65-99-34H22l8-134h141v27H59" id="au"/><path fill="#b2b2b2" d="M68-38c1 34 0 65-14 84H32c9-13 17-26 17-46H33v-38h35" id="av"/><g id="i"><use transform="matrix(0.04248971193415638,0,0,0.04248971193415638,0,0)" xlink:href="#at"/><use transform="matrix(0.04248971193415638,0,0,0.04248971193415638,8.497942386831275,0)" xlink:href="#au"/><use transform="matrix(0.04248971193415638,0,0,0.04248971193415638,16.99588477366255,0)" xlink:href="#av"/></g><path fill="#b2b2b2" d="M101-251c82-7 93 87 43 132L82-64C71-53 59-42 53-27h129V0H18c2-99 128-94 128-182 0-28-16-43-45-43s-46 15-49 41l-32-3c6-41 34-60 81-64" id="aw"/><path fill="#b2b2b2" d="M101-251c68 0 85 55 85 127S166 4 100 4C33 4 14-52 14-124c0-73 17-127 87-127zm-1 229c47 0 54-49 54-102s-4-102-53-102c-51 0-55 48-55 102 0 53 5 102 54 102" id="ax"/><g id="j"><use transform="matrix(0.04248971193415638,0,0,0.04248971193415638,0,0)" xlink:href="#aw"/><use transform="matrix(0.04248971193415638,0,0,0.04248971193415638,8.497942386831275,0)" xlink:href="#ax"/><use transform="matrix(0.04248971193415638,0,0,0.04248971193415638,16.99588477366255,0)" xlink:href="#aw"/><use transform="matrix(0.04248971193415638,0,0,0.04248971193415638,25.493827160493822,0)" xlink:href="#ax"/></g><path fill="#333" d="M205 0l-28-72H64L36 0H1l101-248h38L239 0h-34zm-38-99l-47-123c-12 45-31 82-46 123h93" id="ay"/><path fill="#333" d="M85-194c31 0 48 13 60 33l-1-100h32l1 261h-30c-2-10 0-23-3-31C134-8 116 4 85 4 32 4 16-35 15-94c0-66 23-100 70-100zm9 24c-40 0-46 34-46 75 0 40 6 74 45 74 42 0 51-32 51-76 0-42-9-74-50-73" id="az"/><path fill="#333" d="M100-194c62-1 85 37 85 99 1 63-27 99-86 99S16-35 15-95c0-66 28-99 85-99zM99-20c44 1 53-31 53-75 0-43-8-75-51-75s-53 32-53 75 10 74 51 75" id="aA"/><path fill="#333" d="M115-194c53 0 69 39 70 98 0 66-23 100-70 100C84 3 66-7 56-30L54 0H23l1-261h32v101c10-23 28-34 59-34zm-8 174c40 0 45-34 45-75 0-40-5-75-45-74-42 0-51 32-51 76 0 43 10 73 51 73" id="aB"/><path fill="#333" d="M100-194c63 0 86 42 84 106H49c0 40 14 67 53 68 26 1 43-12 49-29l28 8c-11 28-37 45-77 45C44 4 14-33 15-96c1-61 26-98 85-98zm52 81c6-60-76-77-97-28-3 7-6 17-6 28h103" id="aC"/><g id="k"><use transform="matrix(0.05,0,0,0.05,0,0)" xlink:href="#ay"/><use transform="matrix(0.05,0,0,0.05,12,0)" xlink:href="#az"/><use transform="matrix(0.05,0,0,0.05,22,0)" xlink:href="#aA"/><use transform="matrix(0.05,0,0,0.05,32,0)" xlink:href="#aB"/><use transform="matrix(0.05,0,0,0.05,42,0)" xlink:href="#aC"/></g><path fill="#333" d="M117-194c89-4 53 116 60 194h-32v-121c0-31-8-49-39-48C34-167 62-67 57 0H25l-1-190h30c1 10-1 24 2 32 11-22 29-35 61-36" id="aD"/><path fill="#333" d="M141-36C126-15 110 5 73 4 37 3 15-17 15-53c-1-64 63-63 125-63 3-35-9-54-41-54-24 1-41 7-42 31l-33-3c5-37 33-52 76-52 45 0 72 20 72 64v82c-1 20 7 32 28 27v20c-31 9-61-2-59-35zM48-53c0 20 12 33 32 33 41-3 63-29 60-74-43 2-92-5-92 41" id="aE"/><path fill="#333" d="M24 0v-261h32V0H24" id="aF"/><path fill="#333" d="M179-190L93 31C79 59 56 82 12 73V49c39 6 53-20 64-50L1-190h34L92-34l54-156h33" id="aG"/><path fill="#333" d="M59-47c-2 24 18 29 38 22v24C64 9 27 4 27-40v-127H5v-23h24l9-43h21v43h35v23H59v120" id="aH"/><path fill="#333" d="M24-231v-30h32v30H24zM24 0v-190h32V0H24" id="aI"/><path fill="#333" d="M96-169c-40 0-48 33-48 73s9 75 48 75c24 0 41-14 43-38l32 2c-6 37-31 61-74 61-59 0-76-41-82-99-10-93 101-131 147-64 4 7 5 14 7 22l-32 3c-4-21-16-35-41-35" id="aJ"/><path fill="#333" d="M135-143c-3-34-86-38-87 0 15 53 115 12 119 90S17 21 10-45l28-5c4 36 97 45 98 0-10-56-113-15-118-90-4-57 82-63 122-42 12 7 21 19 24 35" id="aK"/><g id="l"><use transform="matrix(0.05,0,0,0.05,0,0)" xlink:href="#ay"/><use transform="matrix(0.05,0,0,0.05,12,0)" xlink:href="#aD"/><use transform="matrix(0.05,0,0,0.05,22,0)" xlink:href="#aE"/><use transform="matrix(0.05,0,0,0.05,32,0)" xlink:href="#aF"/><use transform="matrix(0.05,0,0,0.05,35.95,0)" xlink:href="#aG"/><use transform="matrix(0.05,0,0,0.05,44.95,0)" xlink:href="#aH"/><use transform="matrix(0.05,0,0,0.05,49.95,0)" xlink:href="#aI"/><use transform="matrix(0.05,0,0,0.05,53.900000000000006,0)" xlink:href="#aJ"/><use transform="matrix(0.05,0,0,0.05,62.900000000000006,0)" xlink:href="#aK"/></g><path fill="#333" d="M143 4C61 4 22-44 18-125c-5-107 100-154 193-111 17 8 29 25 37 43l-32 9c-13-25-37-40-76-40-61 0-88 39-88 99 0 61 29 100 91 101 35 0 62-11 79-27v-45h-74v-28h105v86C228-13 192 4 143 4" id="aL"/><path fill="#333" d="M177-190C167-65 218 103 67 71c-23-6-38-20-44-43l32-5c15 47 100 32 89-28v-30C133-14 115 1 83 1 29 1 15-40 15-95c0-56 16-97 71-98 29-1 48 16 59 35 1-10 0-23 2-32h30zM94-22c36 0 50-32 50-73 0-42-14-75-50-75-39 0-46 34-46 75s6 73 46 73" id="aM"/><g id="m"><use transform="matrix(0.05,0,0,0.05,0,0)" xlink:href="#aL"/><use transform="matrix(0.05,0,0,0.05,14,0)" xlink:href="#aA"/><use transform="matrix(0.05,0,0,0.05,24,0)" xlink:href="#aA"/><use transform="matrix(0.05,0,0,0.05,34,0)" xlink:href="#aM"/><use transform="matrix(0.05,0,0,0.05,44,0)" xlink:href="#aF"/><use transform="matrix(0.05,0,0,0.05,47.95,0)" xlink:href="#aC"/></g><g id="n"><use transform="matrix(0.05,0,0,0.05,0,0)" xlink:href="#ay"/><use transform="matrix(0.05,0,0,0.05,12,0)" xlink:href="#az"/><use transform="matrix(0.05,0,0,0.05,22,0)" xlink:href="#aK"/></g><path fill="#333" d="M240 0l2-218c-23 76-54 145-80 218h-23L58-218 59 0H30v-248h44l77 211c21-75 51-140 76-211h43V0h-30" id="aN"/><path fill="#333" d="M114-163C36-179 61-72 57 0H25l-1-190h30c1 12-1 29 2 39 6-27 23-49 58-41v29" id="aO"/><path fill="#333" d="M143 0L79-87 56-68V0H24v-261h32v163l83-92h37l-77 82L181 0h-38" id="aP"/><g id="o"><use transform="matrix(0.05,0,0,0.05,0,0)" xlink:href="#aN"/><use transform="matrix(0.05,0,0,0.05,14.950000000000001,0)" xlink:href="#aE"/><use transform="matrix(0.05,0,0,0.05,24.950000000000003,0)" xlink:href="#aO"/><use transform="matrix(0.05,0,0,0.05,30.900000000000002,0)" xlink:href="#aP"/><use transform="matrix(0.05,0,0,0.05,39.900000000000006,0)" xlink:href="#aC"/><use transform="matrix(0.05,0,0,0.05,49.900000000000006,0)" xlink:href="#aH"/><use transform="matrix(0.05,0,0,0.05,54.900000000000006,0)" xlink:href="#aA"/></g><path fill="#333" d="M199 0l-22-63H83L61 0H9l90-248h61L250 0h-51zm-33-102l-36-108c-10 38-24 72-36 108h72" id="aQ"/><path fill="#333" d="M275 0h-61l-44-196L126 0H64L0-248h53L97-49l45-199h58l43 199 44-199h52" id="aR"/><path fill="#333" d="M169-182c-1-43-94-46-97-3 18 66 151 10 154 114 3 95-165 93-204 36-6-8-10-19-12-30l50-8c3 46 112 56 116 5-17-69-150-10-154-114-4-87 153-88 188-35 5 8 8 18 10 28" id="aS"/><g id="p"><use transform="matrix(0.05,0,0,0.05,0,0)" xlink:href="#aQ"/><use transform="matrix(0.05,0,0,0.05,11.950000000000001,0)" xlink:href="#aR"/><use transform="matrix(0.05,0,0,0.05,28.899999999999995,0)" xlink:href="#aS"/></g><path fill="#333" d="M24 0v-248h52v208h133V0H24" id="aT"/><path fill="#333" d="M133-34C117-15 103 5 69 4 32 3 11-16 11-54c-1-60 55-63 116-61 1-26-3-47-28-47-18 1-26 9-28 27l-52-2c7-38 36-58 82-57s74 22 75 68l1 82c-1 14 12 18 25 15v27c-30 8-71 5-69-32zm-48 3c29 0 43-24 42-57-32 0-66-3-65 30 0 17 8 27 23 27" id="aU"/><path fill="#333" d="M220-157c-53 9-28 100-34 157h-49v-107c1-27-5-49-29-50C55-147 81-57 75 0H25l-1-190h47c2 12-1 28 3 38 10-53 101-56 108 0 13-22 24-43 59-42 82 1 51 116 57 194h-49v-107c-1-25-5-48-29-50" id="aV"/><path fill="#333" d="M135-194c52 0 70 43 70 98 0 56-19 99-73 100-30 1-46-15-58-35L72 0H24l1-261h50v104c11-23 29-37 60-37zM114-30c31 0 40-27 40-66 0-37-7-63-39-63s-41 28-41 65c0 36 8 64 40 64" id="aW"/><path fill="#333" d="M88-194c31-1 46 15 58 34l-1-101h50l1 261h-48c-2-10 0-23-3-31C134-8 116 4 84 4 32 4 16-41 15-95c0-56 19-97 73-99zm17 164c33 0 40-30 41-66 1-37-9-64-41-64s-38 30-39 65c0 43 13 65 39 65" id="aX"/><g id="q"><use transform="matrix(0.05,0,0,0.05,0,0)" xlink:href="#aT"/><use transform="matrix(0.05,0,0,0.05,10.950000000000001,0)" xlink:href="#aU"/><use transform="matrix(0.05,0,0,0.05,20.950000000000003,0)" xlink:href="#aV"/><use transform="matrix(0.05,0,0,0.05,36.95,0)" xlink:href="#aW"/><use transform="matrix(0.05,0,0,0.05,47.900000000000006,0)" xlink:href="#aX"/><use transform="matrix(0.05,0,0,0.05,58.85,0)" xlink:href="#aU"/></g><path fill="#333" d="M84 4C-5 8 30-112 23-190h32v120c0 31 7 50 39 49 72-2 45-101 50-169h31l1 190h-30c-1-10 1-25-2-33-11 22-28 36-60 37" id="aY"/><g id="r"><use transform="matrix(0.05,0,0,0.05,0,0)" xlink:href="#ay"/><use transform="matrix(0.05,0,0,0.05,12,0)" xlink:href="#aY"/><use transform="matrix(0.05,0,0,0.05,22,0)" xlink:href="#az"/><use transform="matrix(0.05,0,0,0.05,32,0)" xlink:href="#aI"/><use transform="matrix(0.05,0,0,0.05,35.95,0)" xlink:href="#aC"/><use transform="matrix(0.05,0,0,0.05,45.95,0)" xlink:href="#aD"/><use transform="matrix(0.05,0,0,0.05,55.95,0)" xlink:href="#aJ"/><use transform="matrix(0.05,0,0,0.05,64.95,0)" xlink:href="#aC"/></g><g id="s"><use transform="matrix(0.05,0,0,0.05,0,0)" xlink:href="#az"/><use transform="matrix(0.05,0,0,0.05,10,0)" xlink:href="#aE"/><use transform="matrix(0.05,0,0,0.05,20,0)" xlink:href="#aH"/><use transform="matrix(0.05,0,0,0.05,25,0)" xlink:href="#aE"/></g><path fill="#333" d="M30-248c87 1 191-15 191 75 0 78-77 80-158 76V0H30v-248zm33 125c57 0 124 11 124-50 0-59-68-47-124-48v98" id="aZ"/><path fill="#333" d="M108 0H70L1-190h34L89-25l56-165h34" id="ba"/><g id="t"><use transform="matrix(0.05,0,0,0.05,0,0)" xlink:href="#aZ"/><use transform="matrix(0.05,0,0,0.05,12,0)" xlink:href="#aO"/><use transform="matrix(0.05,0,0,0.05,17.95,0)" xlink:href="#aI"/><use transform="matrix(0.05,0,0,0.05,21.9,0)" xlink:href="#ba"/><use transform="matrix(0.05,0,0,0.05,30.899999999999995,0)" xlink:href="#aE"/><use transform="matrix(0.05,0,0,0.05,40.9,0)" xlink:href="#aH"/><use transform="matrix(0.05,0,0,0.05,45.9,0)" xlink:href="#aC"/></g><path fill="#333" d="M194 0L95-120 63-95V0H30v-248h33v124l119-124h40L117-140 236 0h-42" id="bb"/><g id="u"><use transform="matrix(0.05,0,0,0.05,0,0)" xlink:href="#bb"/><use transform="matrix(0.05,0,0,0.05,12,0)" xlink:href="#aC"/><use transform="matrix(0.05,0,0,0.05,22,0)" xlink:href="#aG"/><use transform="matrix(0.05,0,0,0.05,31,0)" xlink:href="#aK"/></g><path fill="#5a6c86" d="M230 0l2-204L168 0h-37L68-204 70 0H24v-248h70l56 185 57-185h69V0h-46" id="bc"/><path fill="#5a6c86" d="M133-34C117-15 103 5 69 4 32 3 11-16 11-54c-1-60 55-63 116-61 1-26-3-47-28-47-18 1-26 9-28 27l-52-2c7-38 36-58 82-57s74 22 75 68l1 82c-1 14 12 18 25 15v27c-30 8-71 5-69-32zm-48 3c29 0 43-24 42-57-32 0-66-3-65 30 0 17 8 27 23 27" id="bd"/><path fill="#5a6c86" d="M135-150c-39-12-60 13-60 57V0H25l-1-190h47c2 13-1 29 3 40 6-28 27-53 61-41v41" id="be"/><path fill="#5a6c86" d="M147 0L96-86 75-71V0H25v-261h50v150l67-79h53l-66 74L201 0h-54" id="bf"/><path fill="#5a6c86" d="M185-48c-13 30-37 53-82 52C43 2 14-33 14-96s30-98 90-98c62 0 83 45 84 108H66c0 31 8 55 39 56 18 0 30-7 34-22zm-45-69c5-46-57-63-70-21-2 6-4 13-4 21h74" id="bg"/><path fill="#5a6c86" d="M115-3C79 11 28 4 28-45v-112H4v-33h27l15-45h31v45h36v33H77v99c-1 23 16 31 38 25v30" id="bh"/><path fill="#5a6c86" d="M25-224v-37h50v37H25zM25 0v-190h50V0H25" id="bi"/><path fill="#5a6c86" d="M135-194c87-1 58 113 63 194h-50c-7-57 23-157-34-157-59 0-34 97-39 157H25l-1-190h47c2 12-1 28 3 38 12-26 28-41 61-42" id="bj"/><path fill="#5a6c86" d="M195-6C206 82 75 100 31 46c-4-6-6-13-8-21l49-6c3 16 16 24 34 25 40 0 42-37 40-79-11 22-30 35-61 35-53 0-70-43-70-97 0-56 18-96 73-97 30 0 46 14 59 34l2-30h47zm-90-29c32 0 41-27 41-63 0-35-9-62-40-62-32 0-39 29-40 63 0 36 9 62 39 62" id="bk"/><g id="v"><use transform="matrix(0.05,0,0,0.05,0,0)" xlink:href="#bc"/><use transform="matrix(0.05,0,0,0.05,14.950000000000001,0)" xlink:href="#bd"/><use transform="matrix(0.05,0,0,0.05,24.950000000000003,0)" xlink:href="#be"/><use transform="matrix(0.05,0,0,0.05,31.950000000000003,0)" xlink:href="#bf"/><use transform="matrix(0.05,0,0,0.05,41.95,0)" xlink:href="#bg"/><use transform="matrix(0.05,0,0,0.05,51.95,0)" xlink:href="#bh"/><use transform="matrix(0.05,0,0,0.05,57.900000000000006,0)" xlink:href="#bi"/><use transform="matrix(0.05,0,0,0.05,62.900000000000006,0)" xlink:href="#bj"/><use transform="matrix(0.05,0,0,0.05,73.85000000000001,0)" xlink:href="#bk"/></g><path fill="#5a6c86" d="M24-248c120-7 223 5 221 122C244-46 201 0 124 0H24v-248zM76-40c74 7 117-18 117-86 0-67-45-88-117-82v168" id="bl"/><g id="w"><use transform="matrix(0.05,0,0,0.05,0,0)" xlink:href="#bl"/><use transform="matrix(0.05,0,0,0.05,12.950000000000001,0)" xlink:href="#bd"/><use transform="matrix(0.05,0,0,0.05,22.950000000000003,0)" xlink:href="#bh"/><use transform="matrix(0.05,0,0,0.05,28.900000000000002,0)" xlink:href="#bd"/></g><path fill="#333" d="M24-248c93 1 206-16 204 79-1 75-69 88-152 82V0H24v-248zm52 121c47 0 100 7 100-41 0-47-54-39-100-39v80" id="bm"/><path fill="#333" d="M24 0v-248h52V0H24" id="bn"/><path fill="#333" d="M137-138c1-29-70-34-71-4 15 46 118 7 119 86 1 83-164 76-172 9l43-7c4 19 20 25 44 25 33 8 57-30 24-41C81-84 22-81 20-136c-2-80 154-74 161-7" id="bo"/><g id="x"><use transform="matrix(0.05,0,0,0.05,0,0)" xlink:href="#aQ"/><use transform="matrix(0.05,0,0,0.05,12.950000000000001,0)" xlink:href="#bm"/><use transform="matrix(0.05,0,0,0.05,24.950000000000003,0)" xlink:href="#bn"/><use transform="matrix(0.05,0,0,0.05,29.950000000000003,0)" xlink:href="#bo"/></g><path fill="#333" d="M12 0v-35l95-120H19v-35h142v35L67-36h103V0H12" id="bp"/><path fill="#333" d="M110-194c64 0 96 36 96 99 0 64-35 99-97 99-61 0-95-36-95-99 0-62 34-99 96-99zm-1 164c35 0 45-28 45-65 0-40-10-65-43-65-34 0-45 26-45 65 0 36 10 65 43 65" id="bq"/><path fill="#333" d="M135-194c87-1 58 113 63 194h-50c-7-57 23-157-34-157-59 0-34 97-39 157H25l-1-190h47c2 12-1 28 3 38 12-26 28-41 61-42" id="br"/><g id="y"><use transform="matrix(0.05,0,0,0.05,0,0)" xlink:href="#aQ"/><use transform="matrix(0.05,0,0,0.05,12.950000000000001,0)" xlink:href="#aV"/><use transform="matrix(0.05,0,0,0.05,28.950000000000003,0)" xlink:href="#aU"/><use transform="matrix(0.05,0,0,0.05,38.95,0)" xlink:href="#bp"/><use transform="matrix(0.05,0,0,0.05,47.95,0)" xlink:href="#bq"/><use transform="matrix(0.05,0,0,0.05,58.900000000000006,0)" xlink:href="#br"/></g><g id="z"><use transform="matrix(0.05,0,0,0.05,0,0)" xlink:href="#aQ"/><use transform="matrix(0.05,0,0,0.05,12.950000000000001,0)" xlink:href="#bm"/><use transform="matrix(0.05,0,0,0.05,24.950000000000003,0)" xlink:href="#bn"/></g><path fill="#333" d="M67-125c0 54 23 88 75 88 28 0 53-7 68-21v-34h-60v-39h108v91C232-14 192 4 140 4 58 4 20-42 15-125 8-236 126-280 215-234c19 10 29 26 37 47l-47 15c-11-23-29-39-63-39-53 1-75 33-75 86" id="bs"/><path fill="#333" d="M115-3C79 11 28 4 28-45v-112H4v-33h27l15-45h31v45h36v33H77v99c-1 23 16 31 38 25v30" id="bt"/><path fill="#333" d="M185-48c-13 30-37 53-82 52C43 2 14-33 14-96s30-98 90-98c62 0 83 45 84 108H66c0 31 8 55 39 56 18 0 30-7 34-22zm-45-69c5-46-57-63-70-21-2 6-4 13-4 21h74" id="bu"/><path fill="#333" d="M231 0h-52l-39-155L100 0H48L-1-190h46L77-45c9-52 24-97 36-145h53l37 145 32-145h46" id="bv"/><path fill="#333" d="M123 10C108 53 80 86 19 72V37c35 8 53-11 59-39L3-190h52l48 148c12-52 28-100 44-148h51" id="bw"/><g id="A"><use transform="matrix(0.05,0,0,0.05,0,0)" xlink:href="#bs"/><use transform="matrix(0.05,0,0,0.05,14,0)" xlink:href="#aU"/><use transform="matrix(0.05,0,0,0.05,24,0)" xlink:href="#bt"/><use transform="matrix(0.05,0,0,0.05,29.950000000000003,0)" xlink:href="#bu"/><use transform="matrix(0.05,0,0,0.05,39.95,0)" xlink:href="#bv"/><use transform="matrix(0.05,0,0,0.05,53.95,0)" xlink:href="#aU"/><use transform="matrix(0.05,0,0,0.05,63.95,0)" xlink:href="#bw"/></g><path fill="#333" d="M67-125c0 53 21 87 73 88 37 1 54-22 65-47l45 17C233-25 199 4 140 4 58 4 20-42 15-125 8-235 124-281 211-232c18 10 29 29 36 50l-46 12c-8-25-30-41-62-41-52 0-71 34-72 86" id="bx"/><path fill="#333" d="M25 0v-261h50V0H25" id="by"/><path fill="#333" d="M85 4C-2 5 27-109 22-190h50c7 57-23 150 33 157 60-5 35-97 40-157h50l1 190h-47c-2-12 1-28-3-38-12 25-28 42-61 42" id="bz"/><path fill="#333" d="M190-63c-7 42-38 67-86 67-59 0-84-38-90-98-12-110 154-137 174-36l-49 2c-2-19-15-32-35-32-30 0-35 28-38 64-6 74 65 87 74 30" id="bA"/><path fill="#333" d="M114-157C55-157 80-60 75 0H25v-261h50l-1 109c12-26 28-41 61-42 86-1 58 113 63 194h-50c-7-57 23-157-34-157" id="bB"/><g id="B"><use transform="matrix(0.05,0,0,0.05,0,0)" xlink:href="#bx"/><use transform="matrix(0.05,0,0,0.05,12.950000000000001,0)" xlink:href="#by"/><use transform="matrix(0.05,0,0,0.05,17.950000000000003,0)" xlink:href="#bq"/><use transform="matrix(0.05,0,0,0.05,28.900000000000006,0)" xlink:href="#bz"/><use transform="matrix(0.05,0,0,0.05,39.85000000000001,0)" xlink:href="#aX"/><use transform="matrix(0.05,0,0,0.05,50.80000000000001,0)" xlink:href="#aR"/><use transform="matrix(0.05,0,0,0.05,67.10000000000001,0)" xlink:href="#aU"/><use transform="matrix(0.05,0,0,0.05,77.10000000000001,0)" xlink:href="#bt"/><use transform="matrix(0.05,0,0,0.05,83.05000000000001,0)" xlink:href="#bA"/><use transform="matrix(0.05,0,0,0.05,93.05000000000001,0)" xlink:href="#bB"/></g><path fill="#333" d="M185-189c-5-48-123-54-124 2 14 75 158 14 163 119 3 78-121 87-175 55-17-10-28-26-33-46l33-7c5 56 141 63 141-1 0-78-155-14-162-118-5-82 145-84 179-34 5 7 8 16 11 25" id="bC"/><g id="C"><use transform="matrix(0.05,0,0,0.05,0,0)" xlink:href="#bC"/><use transform="matrix(0.05,0,0,0.05,12,0)" xlink:href="#aG"/><use transform="matrix(0.05,0,0,0.05,21,0)" xlink:href="#aD"/><use transform="matrix(0.05,0,0,0.05,31,0)" xlink:href="#aJ"/></g><g id="D"><use transform="matrix(0.05,0,0,0.05,0,0)" xlink:href="#az"/><use transform="matrix(0.05,0,0,0.05,10,0)" xlink:href="#aE"/><use transform="matrix(0.05,0,0,0.05,20,0)" xlink:href="#aH"/><use transform="matrix(0.05,0,0,0.05,25,0)" xlink:href="#aE"/></g><g id="E"><use transform="matrix(0.05,0,0,0.05,0,0)" xlink:href="#az"/><use transform="matrix(0.05,0,0,0.05,10,0)" xlink:href="#aE"/><use transform="matrix(0.05,0,0,0.05,20,0)" xlink:href="#aI"/><use transform="matrix(0.05,0,0,0.05,23.95,0)" xlink:href="#aF"/><use transform="matrix(0.05,0,0,0.05,27.899999999999995,0)" xlink:href="#aG"/></g><path fill="#333" d="M212-179c-10-28-35-45-73-45-59 0-87 40-87 99 0 60 29 101 89 101 43 0 62-24 78-52l27 14C228-24 195 4 139 4 59 4 22-46 18-125c-6-104 99-153 187-111 19 9 31 26 39 46" id="bD"/><path fill="#333" d="M0 4l72-265h28L28 4H0" id="bE"/><path fill="#333" d="M206 0h-36l-40-164L89 0H53L-1-190h32L70-26l43-164h34l41 164 42-164h31" id="bF"/><g id="F"><use transform="matrix(0.05,0,0,0.05,0,0)" xlink:href="#bD"/><use transform="matrix(0.05,0,0,0.05,12.950000000000001,0)" xlink:href="#aO"/><use transform="matrix(0.05,0,0,0.05,18.900000000000002,0)" xlink:href="#aC"/><use transform="matrix(0.05,0,0,0.05,28.900000000000002,0)" xlink:href="#aE"/><use transform="matrix(0.05,0,0,0.05,38.900000000000006,0)" xlink:href="#aH"/><use transform="matrix(0.05,0,0,0.05,43.900000000000006,0)" xlink:href="#aC"/><use transform="matrix(0.05,0,0,0.05,53.900000000000006,0)" xlink:href="#bE"/><use transform="matrix(0.05,0,0,0.05,58.900000000000006,0)" xlink:href="#ba"/><use transform="matrix(0.05,0,0,0.05,67.9,0)" xlink:href="#aI"/><use transform="matrix(0.05,0,0,0.05,71.85000000000001,0)" xlink:href="#aC"/><use transform="matrix(0.05,0,0,0.05,81.85000000000001,0)" xlink:href="#bF"/></g><g id="G"><use transform="matrix(0.05,0,0,0.05,0,0)" xlink:href="#aE"/><use transform="matrix(0.05,0,0,0.05,10,0)" xlink:href="#aY"/><use transform="matrix(0.05,0,0,0.05,20,0)" xlink:href="#az"/><use transform="matrix(0.05,0,0,0.05,30,0)" xlink:href="#aI"/><use transform="matrix(0.05,0,0,0.05,33.95,0)" xlink:href="#aC"/><use transform="matrix(0.05,0,0,0.05,43.95,0)" xlink:href="#aD"/><use transform="matrix(0.05,0,0,0.05,53.95,0)" xlink:href="#aJ"/><use transform="matrix(0.05,0,0,0.05,62.95,0)" xlink:href="#aC"/></g><g id="H"><use transform="matrix(0.05,0,0,0.05,0,0)" xlink:href="#aF"/><use transform="matrix(0.05,0,0,0.05,3.95,0)" xlink:href="#aI"/><use transform="matrix(0.05,0,0,0.05,7.9,0)" xlink:href="#aK"/><use transform="matrix(0.05,0,0,0.05,16.9,0)" xlink:href="#aH"/><use transform="matrix(0.05,0,0,0.05,21.9,0)" xlink:href="#aK"/></g><path fill="#333" d="M25-224v-37h50v37H25zM25 0v-190h50V0H25" id="bG"/><g id="I"><use transform="matrix(0.05,0,0,0.05,0,0)" xlink:href="#bx"/><use transform="matrix(0.05,0,0,0.05,12.950000000000001,0)" xlink:href="#by"/><use transform="matrix(0.05,0,0,0.05,17.950000000000003,0)" xlink:href="#bG"/><use transform="matrix(0.05,0,0,0.05,22.950000000000003,0)" xlink:href="#bu"/><use transform="matrix(0.05,0,0,0.05,32.95,0)" xlink:href="#br"/><use transform="matrix(0.05,0,0,0.05,43.900000000000006,0)" xlink:href="#bt"/></g><path fill="#333" d="M195-6C206 82 75 100 31 46c-4-6-6-13-8-21l49-6c3 16 16 24 34 25 40 0 42-37 40-79-11 22-30 35-61 35-53 0-70-43-70-97 0-56 18-96 73-97 30 0 46 14 59 34l2-30h47zm-90-29c32 0 41-27 41-63 0-35-9-62-40-62-32 0-39 29-40 63 0 36 9 62 39 62" id="bH"/><g id="J"><use transform="matrix(0.05,0,0,0.05,0,0)" xlink:href="#bx"/><use transform="matrix(0.05,0,0,0.05,12.950000000000001,0)" xlink:href="#bq"/><use transform="matrix(0.05,0,0,0.05,23.900000000000002,0)" xlink:href="#bH"/><use transform="matrix(0.05,0,0,0.05,34.85,0)" xlink:href="#br"/><use transform="matrix(0.05,0,0,0.05,45.800000000000004,0)" xlink:href="#bG"/><use transform="matrix(0.05,0,0,0.05,50.800000000000004,0)" xlink:href="#bt"/><use transform="matrix(0.05,0,0,0.05,56.75,0)" xlink:href="#bq"/></g><g id="K"><use transform="matrix(0.05,0,0,0.05,0,0)" xlink:href="#bC"/><use transform="matrix(0.05,0,0,0.05,12,0)" xlink:href="#aH"/><use transform="matrix(0.05,0,0,0.05,17,0)" xlink:href="#aE"/><use transform="matrix(0.05,0,0,0.05,27,0)" xlink:href="#aH"/><use transform="matrix(0.05,0,0,0.05,32,0)" xlink:href="#aI"/><use transform="matrix(0.05,0,0,0.05,35.95,0)" xlink:href="#aJ"/></g><g id="L"><use transform="matrix(0.05,0,0,0.05,0,0)" xlink:href="#bD"/><use transform="matrix(0.05,0,0,0.05,12.950000000000001,0)" xlink:href="#aA"/><use transform="matrix(0.05,0,0,0.05,22.950000000000003,0)" xlink:href="#aD"/><use transform="matrix(0.05,0,0,0.05,32.95,0)" xlink:href="#aH"/><use transform="matrix(0.05,0,0,0.05,37.95,0)" xlink:href="#aC"/><use transform="matrix(0.05,0,0,0.05,47.95,0)" xlink:href="#aD"/><use transform="matrix(0.05,0,0,0.05,57.95,0)" xlink:href="#aH"/></g><path fill="#333" d="M106-169C34-169 62-67 57 0H25v-261h32l-1 103c12-21 28-36 61-36 89 0 53 116 60 194h-32v-121c2-32-8-49-39-48" id="bI"/><path fill="#333" d="M9 0v-24l116-142H16v-24h144v24L44-24h123V0H9" id="bJ"/><g id="M"><use transform="matrix(0.05,0,0,0.05,0,0)" xlink:href="#ay"/><use transform="matrix(0.05,0,0,0.05,12,0)" xlink:href="#aY"/><use transform="matrix(0.05,0,0,0.05,22,0)" xlink:href="#aH"/><use transform="matrix(0.05,0,0,0.05,27,0)" xlink:href="#bI"/><use transform="matrix(0.05,0,0,0.05,37,0)" xlink:href="#aA"/><use transform="matrix(0.05,0,0,0.05,47,0)" xlink:href="#aO"/><use transform="matrix(0.05,0,0,0.05,52.95,0)" xlink:href="#aI"/><use transform="matrix(0.05,0,0,0.05,56.900000000000006,0)" xlink:href="#bJ"/><use transform="matrix(0.05,0,0,0.05,65.9,0)" xlink:href="#aC"/></g><g id="N"><use transform="matrix(0.05,0,0,0.05,0,0)" xlink:href="#ay"/><use transform="matrix(0.05,0,0,0.05,12,0)" xlink:href="#aY"/><use transform="matrix(0.05,0,0,0.05,22,0)" xlink:href="#aH"/><use transform="matrix(0.05,0,0,0.05,27,0)" xlink:href="#bI"/><use transform="matrix(0.05,0,0,0.05,37,0)" xlink:href="#aC"/><use transform="matrix(0.05,0,0,0.05,47,0)" xlink:href="#aD"/><use transform="matrix(0.05,0,0,0.05,57,0)" xlink:href="#aH"/><use transform="matrix(0.05,0,0,0.05,62,0)" xlink:href="#aI"/><use transform="matrix(0.05,0,0,0.05,65.95,0)" xlink:href="#aJ"/><use transform="matrix(0.05,0,0,0.05,74.95,0)" xlink:href="#aE"/><use transform="matrix(0.05,0,0,0.05,84.95,0)" xlink:href="#aH"/><use transform="matrix(0.05,0,0,0.05,89.95,0)" xlink:href="#aC"/></g></defs></g></svg>